{"title":"Wolfy.The.Incredible.Secret.[Loulou].2013.BRRip.x264.HORiZON-Art","uid":10626225,"size":1586168206,"categoryP":"video","categoryS":"movies","magnet":"?xt=urn:btih:ead35aa3a2a75f779b84471f3837026eb911861b&amp;dn=Wolfy.The.Incredible.Secret.%5BLoulou%5D.2013.BRRip.x264.HORiZON-Art&amp;tr=udp%3A%2F%2Ftracker.openbittorrent.com%3A80&amp;tr=udp%3A%2F%2Fopen.demonii.com%3A1337&amp;tr=udp%3A%2F%2Ftracker.coppersurfer.tk%3A6969&amp;tr=udp%3A%2F%2Fexodus.desync.com%3A6969","seeders":2,"leechers":0,"uploader":"lletaif","files":1,"time":1406236336,"description":"Title:\nWolfy, the Incredible Secret Aka Loulou, l'incroyable secret \n\n\nCountry:\nFrance, 2013\n\n\nLanguage:\nFrench\n\n\nNo Subtitle\n\n\nIMDB: &lt;a href=&quot;\nhttp://www.imdb.com/title/tt3400214/?ref_=fn_al_tt_5&quot; rel=&quot;nofollow&quot; target=&quot;_NEW&quot;&gt;\nhttp://www.imdb.com/title/tt3400214/?ref_=fn_al_tt_5&lt;/a&gt;\n\n\nSynopsis:\nLoulou is a wolf. Tom is a rabbit. As curious as it may seem, Loulou and Tom have been inseparable since they were little. Now in their teens, they live the easy life in the Land of the Rabbits. But Loulou, who thought he was an orphan, learns that his bohemian mother is alive. The two friends set out to find her in the principality of Wolfenberg, the Land of the Wolves. They arrive in the middle of the Meat-eaters' Festival, a yearly get together for the world's great carnivores. Will Loulou and Tom's friendship survive in the land where herbivores always end up as the main course? What incredible secret lies behind Loulou's birth? \n\nTrivia:\nWon Cesar 2014 the Best Animation\n\nOfficial Selection Berlin Film Festival 2014\n\n\n\nMedia Info:\nGeneral\nUnique ID                                : 184801723061366947210616124669951735264 (0x8B078468A6447DFEA9DC411189BBF5E0)\nComplete name                            : Wolfy.The.Incredible.Secret.[Loulou].2013.BRRip.x264.HORiZON-ArtSubs.mkv\nFormat                                   : Matroska\nFormat version                           : Version 2\nFile size                                : 1.48 GiB\nDuration                                 : 1h 20mn\nOverall bit rate                         : 2 638 Kbps\nEncoded date                             : UTC 2014-07-23 22:50:00\nWriting application                      : DVDFab 9.1.4.0\nWriting library                          : libebml v0.7.8 + libmatroska v0.8.1\n\nVideo\nID                                       : 1\nFormat                                   : AVC\nFormat/Info                              : Advanced Video Codec\nFormat profile                           : &lt;a class=&quot;__cf_email__&quot; href=&quot;/cdn-cgi/l/email-protection&quot; data-cfemail=&quot;2c64454b446c6018021d&quot;&gt;[email&amp;#160;protected]&lt;/a&gt;&lt;script cf-hash='f9e31' type=&quot;text/javascript&quot;&gt;\n/* &lt;![CDATA[ */!function(){try{var t=&quot;currentScript&quot;in document?document.currentScript:function(){for(var t=document.getElementsByTagName(&quot;script&quot;),e=t.length;e--;)if(t[e].getAttribute(&quot;cf-hash&quot;))return t[e]}();if(t&amp;&amp;t.previousSibling){var e,r,n,i,c=t.previousSibling,a=c.getAttribute(&quot;data-cfemail&quot;);if(a){for(e=&quot;&quot;,r=parseInt(a.substr(0,2),16),n=2;a.length-n;n+=2)i=parseInt(a.substr(n,2),16)^r,e+=String.fromCharCode(i);e=document.createTextNode(e),c.parentNode.replaceChild(e,c)}}}catch(u){}}();/* ]]&gt; */&lt;/script&gt;\nFormat settings, CABAC                   : Yes\nFormat settings, ReFrames                : 2 frames\nFormat settings, GOP                     : M=1, N=23\nCodec ID                                 : V_MPEG4/ISO/AVC\nDuration                                 : 1h 20mn\nBit rate                                 : 2 138 Kbps\nWidth                                    : 848 pixels\nHeight                                   : 460 pixels\nDisplay aspect ratio                     : 1.85:1\nFrame rate mode                          : Constant\nFrame rate                               : 24.000 fps\nColor space                              : YUV\nChroma subsampling                       : 4:2:0\nBit depth                                : 8 bits\nScan type                                : Progressive\nBits/(Pixel*Frame)                       : 0.228\nStream size                              : 1.20 GiB (81%)\nWriting library                          : x264 core\nDefault                                  : Yes\nForced                                   : No\nColor primaries                          : BT.601 NTSC\nTransfer characteristics                 : BT.709\nMatrix coefficients                      : BT.601\n\nAudio\nID                                       : 2\nFormat                                   : AC-3\nFormat/Info                              : Audio Coding 3\nMode extension                           : CM (complete main)\nFormat settings, Endianness              : Big\nCodec ID                                 : A_AC3\nDuration                                 : 1h 20mn\nBit rate mode                            : Constant\nBit rate                                 : 448 Kbps\nChannel(s)                               : 6 channels\nChannel positions                        : Front: L C R, Side: L R, LFE\nSampling rate                            : 48.0 KHz\nBit depth                                : 16 bits\nCompression mode                         : Lossy\nStream size                              : 257 MiB (17%)\nLanguage                                 : French\nDefault                                  : Yes\nForced                                   : No\n\n","torrent":{"xt":"urn:btih:ead35aa3a2a75f779b84471f3837026eb911861b","amp;dn":"Wolfy.The.Incredible.Secret.%5BLoulou%5D.2013.BRRip.x264.HORiZON-Art","amp;tr":["udp%3A%2F%2Ftracker.openbittorrent.com%3A80","udp%3A%2F%2Fopen.demonii.com%3A1337","udp%3A%2F%2Ftracker.coppersurfer.tk%3A6969","udp%3A%2F%2Fexodus.desync.com%3A6969"],"infoHash":"ead35aa3a2a75f779b84471f3837026eb911861b","infoHashBuffer":{"type":"Buffer","data":[234,211,90,163,162,167,95,119,155,132,71,31,56,55,2,110,185,17,134,27]},"announce":[],"urlList":[]}}